<svg xmlns="http://www.w3.org/2000/svg" xmlns:xlink="http://www.w3.org/1999/xlink" width="500" zoomAndPan="magnify" viewBox="0 0 375 374.999991" height="500" preserveAspectRatio="xMidYMid meet" version="1.0"><defs><g/></defs><rect x="-37.5" width="450" fill="#ffffff" y="-37.499999" height="449.999989" fill-opacity="1"/><rect x="-37.5" width="450" fill="#ffffff" y="-37.499999" height="449.999989" fill-opacity="1"/><g fill="#004aad" fill-opacity="1"><g transform="translate(71.471052, 196.49033)"><g><path d="M 9.03125 -55 L 22.328125 -43.484375 L 18.65625 -38.4375 L 3.078125 -47.46875 Z M 9.03125 -55 "/></g></g></g><g fill="#004aad" fill-opacity="1"><g transform="translate(94.451483, 196.49033)"><g><path d="M 21.8125 -25.078125 C 19.625 -25.078125 17.742188 -24.269531 16.171875 -22.65625 C 14.597656 -21.039062 13.8125 -19.097656 13.8125 -16.828125 C 13.8125 -14.515625 14.597656 -12.550781 16.171875 -10.9375 C 17.742188 -9.320312 19.625 -8.515625 21.8125 -8.515625 C 22.851562 -8.515625 23.84375 -8.644531 24.78125 -8.90625 C 25.71875 -9.164062 26.40625 -9.425781 26.84375 -9.6875 L 27.4375 -10.078125 L 31.359375 -2.03125 C 31.054688 -1.8125 30.628906 -1.535156 30.078125 -1.203125 C 29.535156 -0.878906 28.289062 -0.4375 26.34375 0.125 C 24.40625 0.695312 22.328125 0.984375 20.109375 0.984375 C 15.171875 0.984375 10.832031 -0.75 7.09375 -4.21875 C 3.363281 -7.695312 1.5 -11.859375 1.5 -16.703125 C 1.5 -21.585938 3.363281 -25.785156 7.09375 -29.296875 C 10.832031 -32.816406 15.171875 -34.578125 20.109375 -34.578125 C 22.328125 -34.578125 24.375 -34.3125 26.25 -33.78125 C 28.132812 -33.257812 29.46875 -32.738281 30.25 -32.21875 L 31.359375 -31.4375 L 27.4375 -23.515625 C 26 -24.554688 24.125 -25.078125 21.8125 -25.078125 Z M 21.8125 -25.078125 "/></g></g></g><g fill="#004aad" fill-opacity="1"><g transform="translate(124.175608, 196.49033)"><g><path d="M 29.40625 -33.59375 L 42.765625 -33.59375 L 16.375 17.03125 L 3.015625 17.03125 L 14.609375 -5.234375 L -1.3125 -33.59375 L 12.046875 -33.59375 L 21.40625 -16.375 Z M 29.40625 -33.59375 "/></g></g></g><g fill="#106ae1" fill-opacity="1"><g transform="translate(163.205415, 196.49033)"><g><path d="M 5.046875 -52.328125 C 6.398438 -53.679688 8.015625 -54.359375 9.890625 -54.359375 C 11.765625 -54.359375 13.378906 -53.679688 14.734375 -52.328125 C 16.085938 -50.972656 16.765625 -49.351562 16.765625 -47.46875 C 16.765625 -45.59375 16.085938 -43.976562 14.734375 -42.625 C 13.378906 -41.269531 11.765625 -40.59375 9.890625 -40.59375 C 8.015625 -40.59375 6.398438 -41.269531 5.046875 -42.625 C 3.691406 -43.976562 3.015625 -45.59375 3.015625 -47.46875 C 3.015625 -49.351562 3.691406 -50.972656 5.046875 -52.328125 Z M 3.921875 -33.59375 L 3.921875 0 L 15.515625 0 L 15.515625 -33.59375 Z M 3.921875 -33.59375 "/></g></g></g><g fill="#106ae1" fill-opacity="1"><g transform="translate(180.555193, 196.49033)"><g><path d="M 3.921875 0 L 3.921875 -33.59375 L 15.515625 -33.59375 L 15.515625 -30.0625 L 15.65625 -30.0625 C 18.664062 -33.070312 21.875 -34.578125 25.28125 -34.578125 C 26.9375 -34.578125 28.582031 -34.359375 30.21875 -33.921875 C 31.851562 -33.484375 33.421875 -32.804688 34.921875 -31.890625 C 36.429688 -30.972656 37.65625 -29.671875 38.59375 -27.984375 C 39.539062 -26.304688 40.015625 -24.359375 40.015625 -22.140625 L 40.015625 0 L 28.421875 0 L 28.421875 -18.984375 C 28.421875 -20.734375 27.863281 -22.257812 26.75 -23.5625 C 25.632812 -24.875 24.179688 -25.53125 22.390625 -25.53125 C 20.648438 -25.53125 19.066406 -24.851562 17.640625 -23.5 C 16.222656 -22.15625 15.515625 -20.648438 15.515625 -18.984375 L 15.515625 0 Z M 3.921875 0 "/></g></g></g><g fill="#106ae1" fill-opacity="1"><g transform="translate(221.40968, 196.49033)"><g><path d="M 7.09375 -3.984375 C 3.363281 -7.304688 1.5 -11.566406 1.5 -16.765625 C 1.5 -21.960938 3.441406 -26.226562 7.328125 -29.5625 C 11.210938 -32.90625 16.015625 -34.578125 21.734375 -34.578125 C 27.367188 -34.578125 32.117188 -32.894531 35.984375 -29.53125 C 39.847656 -26.164062 41.78125 -21.90625 41.78125 -16.75 C 41.78125 -11.601562 39.890625 -7.359375 36.109375 -4.015625 C 32.335938 -0.679688 27.546875 0.984375 21.734375 0.984375 C 15.710938 0.984375 10.832031 -0.671875 7.09375 -3.984375 Z M 16.0625 -22.453125 C 14.5625 -20.972656 13.8125 -19.078125 13.8125 -16.765625 C 13.8125 -14.453125 14.53125 -12.5625 15.96875 -11.09375 C 17.414062 -9.632812 19.316406 -8.90625 21.671875 -8.90625 C 23.941406 -8.90625 25.804688 -9.644531 27.265625 -11.125 C 28.734375 -12.613281 29.46875 -14.492188 29.46875 -16.765625 C 29.46875 -19.078125 28.710938 -20.972656 27.203125 -22.453125 C 25.703125 -23.941406 23.859375 -24.6875 21.671875 -24.6875 C 19.441406 -24.6875 17.570312 -23.941406 16.0625 -22.453125 Z M 16.0625 -22.453125 "/></g></g></g><g fill="#106ae1" fill-opacity="1"><g transform="translate(262.264167, 196.49033)"><g><path d="M 12.4375 -33.59375 L 20.625 -15.328125 L 28.8125 -33.59375 L 42.5625 -33.59375 L 24.5625 0 L 16.703125 0 L -1.3125 -33.59375 Z M 12.4375 -33.59375 "/></g></g></g><g fill="#000000" fill-opacity="1"><g transform="translate(148.193275, 207.284434)"><g><path d="M 3.9375 -7.0625 C 4.632812 -7.0625 5.210938 -6.953125 5.671875 -6.734375 C 6.128906 -6.515625 6.359375 -6.234375 6.359375 -5.890625 C 6.359375 -5.734375 6.3125 -5.597656 6.21875 -5.484375 C 6.125 -5.367188 6 -5.3125 5.84375 -5.3125 C 5.726562 -5.3125 5.640625 -5.328125 5.578125 -5.359375 C 5.515625 -5.390625 5.425781 -5.445312 5.3125 -5.53125 C 5.257812 -5.582031 5.175781 -5.644531 5.0625 -5.71875 C 4.957031 -5.769531 4.804688 -5.8125 4.609375 -5.84375 C 4.421875 -5.882812 4.242188 -5.90625 4.078125 -5.90625 C 3.617188 -5.90625 3.210938 -5.796875 2.859375 -5.578125 C 2.515625 -5.367188 2.242188 -5.078125 2.046875 -4.703125 C 1.859375 -4.335938 1.765625 -3.925781 1.765625 -3.46875 C 1.765625 -3 1.859375 -2.578125 2.046875 -2.203125 C 2.234375 -1.835938 2.5 -1.550781 2.84375 -1.34375 C 3.1875 -1.132812 3.578125 -1.03125 4.015625 -1.03125 C 4.472656 -1.03125 4.84375 -1.097656 5.125 -1.234375 C 5.1875 -1.273438 5.269531 -1.332031 5.375 -1.40625 C 5.457031 -1.476562 5.53125 -1.53125 5.59375 -1.5625 C 5.664062 -1.601562 5.75 -1.625 5.84375 -1.625 C 6.019531 -1.625 6.160156 -1.566406 6.265625 -1.453125 C 6.367188 -1.347656 6.421875 -1.207031 6.421875 -1.03125 C 6.421875 -0.84375 6.300781 -0.65625 6.0625 -0.46875 C 5.832031 -0.289062 5.519531 -0.144531 5.125 -0.03125 C 4.738281 0.0703125 4.320312 0.125 3.875 0.125 C 3.207031 0.125 2.617188 -0.0234375 2.109375 -0.328125 C 1.597656 -0.640625 1.203125 -1.070312 0.921875 -1.625 C 0.648438 -2.175781 0.515625 -2.789062 0.515625 -3.46875 C 0.515625 -4.144531 0.660156 -4.753906 0.953125 -5.296875 C 1.242188 -5.847656 1.644531 -6.28125 2.15625 -6.59375 C 2.675781 -6.90625 3.269531 -7.0625 3.9375 -7.0625 Z M 3.9375 -7.0625 "/></g></g></g><g fill="#000000" fill-opacity="1"><g transform="translate(163.556217, 207.284434)"><g><path d="M 7.46875 -3.453125 C 7.46875 -2.765625 7.3125 -2.148438 7 -1.609375 C 6.695312 -1.066406 6.28125 -0.640625 5.75 -0.328125 C 5.21875 -0.0234375 4.628906 0.125 3.984375 0.125 C 3.347656 0.125 2.765625 -0.0234375 2.234375 -0.328125 C 1.703125 -0.640625 1.28125 -1.066406 0.96875 -1.609375 C 0.664062 -2.148438 0.515625 -2.765625 0.515625 -3.453125 C 0.515625 -4.140625 0.664062 -4.757812 0.96875 -5.3125 C 1.28125 -5.863281 1.703125 -6.289062 2.234375 -6.59375 C 2.765625 -6.90625 3.347656 -7.0625 3.984375 -7.0625 C 4.628906 -7.0625 5.21875 -6.90625 5.75 -6.59375 C 6.28125 -6.289062 6.695312 -5.863281 7 -5.3125 C 7.3125 -4.757812 7.46875 -4.140625 7.46875 -3.453125 Z M 6.21875 -3.453125 C 6.21875 -3.921875 6.117188 -4.34375 5.921875 -4.71875 C 5.722656 -5.09375 5.453125 -5.382812 5.109375 -5.59375 C 4.773438 -5.800781 4.398438 -5.90625 3.984375 -5.90625 C 3.578125 -5.90625 3.203125 -5.800781 2.859375 -5.59375 C 2.523438 -5.382812 2.257812 -5.09375 2.0625 -4.71875 C 1.863281 -4.34375 1.765625 -3.921875 1.765625 -3.453125 C 1.765625 -2.984375 1.863281 -2.5625 2.0625 -2.1875 C 2.257812 -1.820312 2.523438 -1.535156 2.859375 -1.328125 C 3.203125 -1.128906 3.578125 -1.03125 3.984375 -1.03125 C 4.398438 -1.03125 4.773438 -1.128906 5.109375 -1.328125 C 5.453125 -1.535156 5.722656 -1.820312 5.921875 -2.1875 C 6.117188 -2.5625 6.21875 -2.984375 6.21875 -3.453125 Z M 6.21875 -3.453125 "/></g></g></g><g fill="#000000" fill-opacity="1"><g transform="translate(180.130919, 207.284434)"><g><path d="M 4.453125 -7.0625 C 6.035156 -7.0625 6.828125 -6.113281 6.828125 -4.21875 L 6.828125 -0.625 C 6.828125 -0.457031 6.765625 -0.3125 6.640625 -0.1875 C 6.523438 -0.0625 6.375 0 6.1875 0 C 6.007812 0 5.863281 -0.0625 5.75 -0.1875 C 5.632812 -0.3125 5.578125 -0.457031 5.578125 -0.625 L 5.578125 -4.203125 C 5.578125 -4.722656 5.457031 -5.132812 5.21875 -5.4375 C 4.976562 -5.75 4.59375 -5.90625 4.0625 -5.90625 C 3.707031 -5.90625 3.382812 -5.828125 3.09375 -5.671875 C 2.8125 -5.515625 2.585938 -5.304688 2.421875 -5.046875 C 2.265625 -4.785156 2.1875 -4.503906 2.1875 -4.203125 L 2.1875 -0.625 C 2.1875 -0.457031 2.125 -0.3125 2 -0.1875 C 1.882812 -0.0625 1.734375 0 1.546875 0 C 1.367188 0 1.222656 -0.0546875 1.109375 -0.171875 C 0.992188 -0.296875 0.9375 -0.445312 0.9375 -0.625 L 0.9375 -6.265625 C 0.9375 -6.441406 0.992188 -6.59375 1.109375 -6.71875 C 1.234375 -6.84375 1.378906 -6.90625 1.546875 -6.90625 C 1.734375 -6.90625 1.882812 -6.84375 2 -6.71875 C 2.125 -6.59375 2.1875 -6.441406 2.1875 -6.265625 L 2.1875 -5.8125 C 2.414062 -6.15625 2.734375 -6.445312 3.140625 -6.6875 C 3.546875 -6.9375 3.984375 -7.0625 4.453125 -7.0625 Z M 4.453125 -7.0625 "/></g></g></g><g fill="#000000" fill-opacity="1"><g transform="translate(196.481704, 207.284434)"><g><path d="M 0.546875 -1.078125 C 0.460938 -1.203125 0.421875 -1.320312 0.421875 -1.4375 C 0.421875 -1.613281 0.515625 -1.765625 0.703125 -1.890625 C 0.785156 -1.941406 0.882812 -1.96875 1 -1.96875 C 1.15625 -1.96875 1.300781 -1.90625 1.4375 -1.78125 C 1.695312 -1.476562 1.976562 -1.25 2.28125 -1.09375 C 2.582031 -0.945312 2.945312 -0.875 3.375 -0.875 C 3.707031 -0.882812 4 -0.960938 4.25 -1.109375 C 4.507812 -1.253906 4.640625 -1.488281 4.640625 -1.8125 C 4.640625 -2.113281 4.507812 -2.34375 4.25 -2.5 C 3.988281 -2.65625 3.609375 -2.800781 3.109375 -2.9375 C 2.617188 -3.070312 2.207031 -3.207031 1.875 -3.34375 C 1.550781 -3.488281 1.273438 -3.703125 1.046875 -3.984375 C 0.828125 -4.265625 0.71875 -4.628906 0.71875 -5.078125 C 0.71875 -5.460938 0.828125 -5.804688 1.046875 -6.109375 C 1.273438 -6.410156 1.578125 -6.644531 1.953125 -6.8125 C 2.328125 -6.976562 2.734375 -7.0625 3.171875 -7.0625 C 3.597656 -7.0625 4.019531 -6.984375 4.4375 -6.828125 C 4.851562 -6.671875 5.191406 -6.425781 5.453125 -6.09375 C 5.554688 -5.976562 5.609375 -5.851562 5.609375 -5.71875 C 5.609375 -5.570312 5.539062 -5.4375 5.40625 -5.3125 C 5.3125 -5.226562 5.203125 -5.1875 5.078125 -5.1875 C 4.910156 -5.1875 4.78125 -5.238281 4.6875 -5.34375 C 4.5 -5.550781 4.269531 -5.710938 4 -5.828125 C 3.738281 -5.941406 3.445312 -6 3.125 -6 C 2.789062 -6 2.503906 -5.929688 2.265625 -5.796875 C 2.035156 -5.660156 1.921875 -5.429688 1.921875 -5.109375 C 1.929688 -4.804688 2.066406 -4.578125 2.328125 -4.421875 C 2.585938 -4.273438 2.984375 -4.128906 3.515625 -3.984375 C 3.984375 -3.867188 4.367188 -3.738281 4.671875 -3.59375 C 4.984375 -3.457031 5.242188 -3.25 5.453125 -2.96875 C 5.660156 -2.695312 5.765625 -2.335938 5.765625 -1.890625 C 5.765625 -1.472656 5.644531 -1.113281 5.40625 -0.8125 C 5.175781 -0.507812 4.867188 -0.273438 4.484375 -0.109375 C 4.097656 0.046875 3.691406 0.125 3.265625 0.125 C 2.710938 0.125 2.203125 0.03125 1.734375 -0.15625 C 1.265625 -0.351562 0.867188 -0.660156 0.546875 -1.078125 Z M 0.546875 -1.078125 "/></g></g></g><g fill="#000000" fill-opacity="1"><g transform="translate(211.357318, 207.284434)"><g><path d="M 6.078125 -6.90625 C 6.253906 -6.90625 6.398438 -6.84375 6.515625 -6.71875 C 6.640625 -6.59375 6.703125 -6.441406 6.703125 -6.265625 L 6.703125 -2.765625 C 6.703125 -1.847656 6.445312 -1.132812 5.9375 -0.625 C 5.4375 -0.125 4.726562 0.125 3.8125 0.125 C 2.894531 0.125 2.1875 -0.125 1.6875 -0.625 C 1.1875 -1.132812 0.9375 -1.847656 0.9375 -2.765625 L 0.9375 -6.265625 C 0.9375 -6.441406 0.992188 -6.59375 1.109375 -6.71875 C 1.234375 -6.84375 1.378906 -6.90625 1.546875 -6.90625 C 1.734375 -6.90625 1.882812 -6.84375 2 -6.71875 C 2.125 -6.59375 2.1875 -6.441406 2.1875 -6.265625 L 2.1875 -2.765625 C 2.1875 -1.617188 2.726562 -1.046875 3.8125 -1.046875 C 4.34375 -1.046875 4.75 -1.1875 5.03125 -1.46875 C 5.3125 -1.757812 5.453125 -2.191406 5.453125 -2.765625 L 5.453125 -6.265625 C 5.453125 -6.441406 5.507812 -6.59375 5.625 -6.71875 C 5.75 -6.84375 5.898438 -6.90625 6.078125 -6.90625 Z M 6.078125 -6.90625 "/></g></g></g><g fill="#000000" fill-opacity="1"><g transform="translate(227.589559, 207.284434)"><g><path d="M 2.296875 -0.625 C 2.296875 -0.457031 2.234375 -0.3125 2.109375 -0.1875 C 1.984375 -0.0625 1.832031 0 1.65625 0 C 1.476562 0 1.332031 -0.0625 1.21875 -0.1875 C 1.101562 -0.3125 1.046875 -0.457031 1.046875 -0.625 L 1.046875 -9.109375 C 1.046875 -9.285156 1.101562 -9.4375 1.21875 -9.5625 C 1.34375 -9.6875 1.492188 -9.75 1.671875 -9.75 C 1.847656 -9.75 1.992188 -9.6875 2.109375 -9.5625 C 2.234375 -9.4375 2.296875 -9.285156 2.296875 -9.109375 Z M 2.296875 -0.625 "/></g></g></g><g fill="#000000" fill-opacity="1"><g transform="translate(239.514817, 207.284434)"><g><path d="M 2.8125 -5.671875 L 2.8125 -1.75 C 2.8125 -1.3125 3.003906 -1.09375 3.390625 -1.09375 C 3.453125 -1.09375 3.535156 -1.109375 3.640625 -1.140625 C 3.753906 -1.171875 3.84375 -1.1875 3.90625 -1.1875 C 4.007812 -1.1875 4.101562 -1.132812 4.1875 -1.03125 C 4.269531 -0.9375 4.3125 -0.816406 4.3125 -0.671875 C 4.3125 -0.484375 4.203125 -0.320312 3.984375 -0.1875 C 3.773438 -0.0625 3.539062 0 3.28125 0 C 2.988281 0 2.722656 -0.03125 2.484375 -0.09375 C 2.242188 -0.15625 2.023438 -0.3125 1.828125 -0.5625 C 1.640625 -0.8125 1.546875 -1.191406 1.546875 -1.703125 L 1.546875 -5.671875 L 0.796875 -5.671875 C 0.628906 -5.671875 0.488281 -5.722656 0.375 -5.828125 C 0.257812 -5.941406 0.203125 -6.082031 0.203125 -6.25 C 0.203125 -6.414062 0.257812 -6.550781 0.375 -6.65625 C 0.488281 -6.769531 0.628906 -6.828125 0.796875 -6.828125 L 1.546875 -6.828125 L 1.546875 -7.921875 C 1.546875 -8.097656 1.601562 -8.25 1.71875 -8.375 C 1.84375 -8.5 2 -8.5625 2.1875 -8.5625 C 2.363281 -8.5625 2.507812 -8.5 2.625 -8.375 C 2.75 -8.25 2.8125 -8.097656 2.8125 -7.921875 L 2.8125 -6.828125 L 3.90625 -6.828125 C 4.070312 -6.828125 4.207031 -6.769531 4.3125 -6.65625 C 4.425781 -6.550781 4.484375 -6.414062 4.484375 -6.25 C 4.484375 -6.082031 4.425781 -5.941406 4.3125 -5.828125 C 4.207031 -5.722656 4.070312 -5.671875 3.90625 -5.671875 Z M 2.8125 -5.671875 "/></g></g></g><g fill="#000000" fill-opacity="1"><g transform="translate(253.112823, 207.284434)"><g><path d="M 2.125 -0.625 C 2.125 -0.457031 2.0625 -0.3125 1.9375 -0.1875 C 1.820312 -0.0625 1.671875 0 1.484375 0 C 1.304688 0 1.160156 -0.0625 1.046875 -0.1875 C 0.929688 -0.3125 0.875 -0.457031 0.875 -0.625 L 0.875 -6.328125 C 0.875 -6.503906 0.929688 -6.65625 1.046875 -6.78125 C 1.160156 -6.90625 1.304688 -6.96875 1.484375 -6.96875 C 1.671875 -6.96875 1.820312 -6.90625 1.9375 -6.78125 C 2.0625 -6.65625 2.125 -6.503906 2.125 -6.328125 Z M 1.484375 -7.84375 C 1.234375 -7.84375 1.050781 -7.882812 0.9375 -7.96875 C 0.832031 -8.0625 0.78125 -8.210938 0.78125 -8.421875 L 0.78125 -8.625 C 0.78125 -8.832031 0.835938 -8.976562 0.953125 -9.0625 C 1.078125 -9.15625 1.257812 -9.203125 1.5 -9.203125 C 1.75 -9.203125 1.925781 -9.15625 2.03125 -9.0625 C 2.144531 -8.976562 2.203125 -8.832031 2.203125 -8.625 L 2.203125 -8.421875 C 2.203125 -8.203125 2.144531 -8.050781 2.03125 -7.96875 C 1.914062 -7.882812 1.734375 -7.84375 1.484375 -7.84375 Z M 1.484375 -7.84375 "/></g></g></g><g fill="#000000" fill-opacity="1"><g transform="translate(264.69562, 207.284434)"><g><path d="M 4.453125 -7.0625 C 6.035156 -7.0625 6.828125 -6.113281 6.828125 -4.21875 L 6.828125 -0.625 C 6.828125 -0.457031 6.765625 -0.3125 6.640625 -0.1875 C 6.523438 -0.0625 6.375 0 6.1875 0 C 6.007812 0 5.863281 -0.0625 5.75 -0.1875 C 5.632812 -0.3125 5.578125 -0.457031 5.578125 -0.625 L 5.578125 -4.203125 C 5.578125 -4.722656 5.457031 -5.132812 5.21875 -5.4375 C 4.976562 -5.75 4.59375 -5.90625 4.0625 -5.90625 C 3.707031 -5.90625 3.382812 -5.828125 3.09375 -5.671875 C 2.8125 -5.515625 2.585938 -5.304688 2.421875 -5.046875 C 2.265625 -4.785156 2.1875 -4.503906 2.1875 -4.203125 L 2.1875 -0.625 C 2.1875 -0.457031 2.125 -0.3125 2 -0.1875 C 1.882812 -0.0625 1.734375 0 1.546875 0 C 1.367188 0 1.222656 -0.0546875 1.109375 -0.171875 C 0.992188 -0.296875 0.9375 -0.445312 0.9375 -0.625 L 0.9375 -6.265625 C 0.9375 -6.441406 0.992188 -6.59375 1.109375 -6.71875 C 1.234375 -6.84375 1.378906 -6.90625 1.546875 -6.90625 C 1.734375 -6.90625 1.882812 -6.84375 2 -6.71875 C 2.125 -6.59375 2.1875 -6.441406 2.1875 -6.265625 L 2.1875 -5.8125 C 2.414062 -6.15625 2.734375 -6.445312 3.140625 -6.6875 C 3.546875 -6.9375 3.984375 -7.0625 4.453125 -7.0625 Z M 4.453125 -7.0625 "/></g></g></g><g fill="#000000" fill-opacity="1"><g transform="translate(281.046412, 207.284434)"><g><path d="M 6.703125 -7 C 6.890625 -7 7.039062 -6.9375 7.15625 -6.8125 C 7.28125 -6.695312 7.34375 -6.539062 7.34375 -6.34375 L 7.34375 -0.546875 C 7.34375 0.160156 7.1875 0.753906 6.875 1.234375 C 6.570312 1.710938 6.160156 2.066406 5.640625 2.296875 C 5.128906 2.523438 4.550781 2.640625 3.90625 2.640625 C 3.550781 2.640625 3.140625 2.578125 2.671875 2.453125 C 2.203125 2.328125 1.898438 2.195312 1.765625 2.0625 C 1.492188 1.925781 1.359375 1.753906 1.359375 1.546875 C 1.359375 1.492188 1.375 1.421875 1.40625 1.328125 C 1.5 1.109375 1.660156 1 1.890625 1 C 2.003906 1 2.128906 1.023438 2.265625 1.078125 C 2.960938 1.347656 3.507812 1.484375 3.90625 1.484375 C 4.613281 1.484375 5.148438 1.3125 5.515625 0.96875 C 5.890625 0.632812 6.078125 0.175781 6.078125 -0.40625 L 6.078125 -1.125 C 5.898438 -0.78125 5.59375 -0.484375 5.15625 -0.234375 C 4.71875 0.00390625 4.257812 0.125 3.78125 0.125 C 3.175781 0.125 2.625 -0.0234375 2.125 -0.328125 C 1.625 -0.640625 1.226562 -1.066406 0.9375 -1.609375 C 0.65625 -2.160156 0.515625 -2.78125 0.515625 -3.46875 C 0.515625 -4.144531 0.65625 -4.757812 0.9375 -5.3125 C 1.226562 -5.863281 1.617188 -6.289062 2.109375 -6.59375 C 2.609375 -6.90625 3.15625 -7.0625 3.75 -7.0625 C 4.238281 -7.0625 4.691406 -6.953125 5.109375 -6.734375 C 5.523438 -6.515625 5.847656 -6.242188 6.078125 -5.921875 L 6.078125 -6.34375 C 6.078125 -6.53125 6.132812 -6.6875 6.25 -6.8125 C 6.363281 -6.9375 6.515625 -7 6.703125 -7 Z M 3.921875 -1.03125 C 4.359375 -1.03125 4.742188 -1.128906 5.078125 -1.328125 C 5.410156 -1.535156 5.671875 -1.828125 5.859375 -2.203125 C 6.046875 -2.578125 6.140625 -3 6.140625 -3.46875 C 6.140625 -3.925781 6.046875 -4.335938 5.859375 -4.703125 C 5.671875 -5.078125 5.410156 -5.367188 5.078125 -5.578125 C 4.742188 -5.796875 4.359375 -5.90625 3.921875 -5.90625 C 3.503906 -5.90625 3.128906 -5.796875 2.796875 -5.578125 C 2.460938 -5.367188 2.195312 -5.078125 2 -4.703125 C 1.8125 -4.335938 1.71875 -3.925781 1.71875 -3.46875 C 1.71875 -3.007812 1.8125 -2.59375 2 -2.21875 C 2.195312 -1.84375 2.460938 -1.550781 2.796875 -1.34375 C 3.128906 -1.132812 3.503906 -1.03125 3.921875 -1.03125 Z M 3.921875 -1.03125 "/></g></g></g></svg>